<svg width="46" height="46" viewBox="0 0 46 46" fill="none" xmlns="http://www.w3.org/2000/svg">
<path d="M36.5508 9.44918L33.8483 12.1517C36.6083 14.9308 38.3333 18.7642 38.3333 23C38.3333 31.4717 31.4716 38.3333 22.9999 38.3333C14.5283 38.3333 7.66659 31.4717 7.66659 23C7.66659 15.18 13.5124 8.74001 21.0833 7.80084V11.6725C15.6399 12.5925 11.4999 17.3075 11.4999 23C11.4999 29.3442 16.6558 34.5 22.9999 34.5C29.3441 34.5 34.4999 29.3442 34.4999 23C34.4999 19.8183 33.2158 16.9433 31.1266 14.8733L28.4241 17.5758C29.8041 18.975 30.6666 20.8917 30.6666 23C30.6666 27.2358 27.2358 30.6667 22.9999 30.6667C18.7641 30.6667 15.3333 27.2358 15.3333 23C15.3333 19.435 17.7866 16.4642 21.0833 15.6017V19.7033C19.9333 20.3742 19.1666 21.5817 19.1666 23C19.1666 25.1083 20.8916 26.8333 22.9999 26.8333C25.1083 26.8333 26.8333 25.1083 26.8333 23C26.8333 21.5817 26.0666 20.355 24.9166 19.7033V3.83334H22.9999C12.4199 3.83334 3.83325 12.42 3.83325 23C3.83325 33.58 12.4199 42.1667 22.9999 42.1667C33.5799 42.1667 42.1666 33.58 42.1666 23C42.1666 17.71 40.0199 12.9183 36.5508 9.44918Z" fill="#878585"/>
</svg>
