<svg width="28" height="28" viewBox="0 0 28 28" fill="none" xmlns="http://www.w3.org/2000/svg">
<path fill="#f39c12" d="M11.6666 19.25L18.6666 14L11.6666 8.75V19.25ZM14 2.33334C7.55998 2.33334 2.33331 7.56 2.33331 14C2.33331 20.44 7.55998 25.6667 14 25.6667C20.44 25.6667 25.6666 20.44 25.6666 14C25.6666 7.56 20.44 2.33334 14 2.33334ZM14 23.3333C8.85498 23.3333 4.66665 19.145 4.66665 14C4.66665 8.855 8.85498 4.66667 14 4.66667C19.145 4.66667 23.3333 8.855 23.3333 14C23.3333 19.145 19.145 23.3333 14 23.3333Z" />
</svg>
